<svg width="25" height="24" viewBox="0 0 25 24" fill="none" xmlns="http://www.w3.org/2000/svg">
<g opacity="0.3" clip-path="url(#clip0_1369_3856)">
<path d="M1.777 7.82869C1.63804 7.94171 1.52779 8.07596 1.45257 8.22377C1.37734 8.37158 1.33862 8.53004 1.33862 8.69007C1.33862 8.8501 1.37734 9.00856 1.45257 9.15637C1.52779 9.30418 1.63804 9.43844 1.777 9.55145L11.6969 17.6397C11.8073 17.7299 11.9385 17.8015 12.0829 17.8503C12.2273 17.8992 12.3821 17.9243 12.5385 17.9243C12.6948 17.9243 12.8496 17.8992 12.994 17.8503C13.1384 17.8015 13.2696 17.7299 13.38 17.6397L23.2999 9.55145C23.8849 9.07453 23.8849 8.30561 23.2999 7.82869C22.715 7.35177 22.1008 7.74685 21.5159 8.22377L16.3159 12.4838L12.4999 15.4849L2.89995 7.81826C2.89995 7.81826 2.34999 7.35177 1.777 7.82869Z" fill="black"/>
</g>
<defs>
<clipPath id="clip0_1369_3856">
<rect width="23" height="24" fill="white" transform="matrix(0 -1 1 0 0.5 23.5)"/>
</clipPath>
</defs>
</svg>
