<svg width="32" height="32" viewBox="0 0 32 32" fill="none" xmlns="http://www.w3.org/2000/svg">
<path d="M29.26 3.68657C28.9725 3.44827 28.6259 3.29221 28.2569 3.23494C27.8879 3.17766 27.5102 3.2213 27.164 3.36124L3.27468 13.0052C2.88864 13.1639 2.55998 13.4362 2.33232 13.786C2.10467 14.1358 1.9888 14.5466 2.00008 14.9638C2.01136 15.381 2.14927 15.7849 2.3955 16.1219C2.64173 16.4589 2.98463 16.713 3.37868 16.8506L8.53334 18.6399L11.3267 27.8746C11.332 27.8932 11.3493 27.9052 11.3573 27.9226C11.3861 27.9963 11.4281 28.064 11.4813 28.1226C11.5622 28.2128 11.6665 28.2789 11.7827 28.3132C11.796 28.3186 11.8053 28.3306 11.8187 28.3332H11.8267L11.8307 28.3346C11.9338 28.3568 12.041 28.3513 12.1413 28.3186C12.152 28.3159 12.1627 28.3159 12.1747 28.3119C12.271 28.2781 12.3582 28.2224 12.4293 28.1492C12.4373 28.1399 12.4507 28.1386 12.4587 28.1306L16.476 23.6959L22.3387 28.2359C22.6947 28.5146 23.1333 28.6652 23.5853 28.6652C24.564 28.6652 25.408 27.9799 25.6093 27.0239L29.9587 5.66657C30.0324 5.30401 30.0064 4.92821 29.8834 4.57927C29.7603 4.23034 29.5449 3.92134 29.26 3.68524V3.68657ZM12.784 20.3932L11.8413 24.9759L9.87468 18.4719L19.628 13.3919L12.9653 20.0559C12.8731 20.1481 12.81 20.2654 12.784 20.3932ZM24.3027 26.7559C24.2776 26.8768 24.2219 26.9893 24.1409 27.0824C24.0599 27.1756 23.9563 27.2463 23.84 27.2879C23.7266 27.3316 23.6037 27.3449 23.4836 27.3267C23.3634 27.3085 23.25 27.2593 23.1547 27.1839L16.804 22.2652C16.6713 22.1628 16.5047 22.1141 16.3377 22.1289C16.1706 22.1437 16.0153 22.221 15.9027 22.3452L13.1067 25.4266L14.048 20.8572L23.6333 11.2706C23.7456 11.158 23.8139 11.0089 23.8259 10.8504C23.8379 10.6918 23.7929 10.5342 23.6989 10.4059C23.6049 10.2776 23.4682 10.1872 23.3134 10.1509C23.1586 10.1146 22.9959 10.1348 22.8547 10.2079L9.03734 17.4052L3.81468 15.5892C3.6762 15.5435 3.55543 15.4558 3.46916 15.3382C3.38289 15.2206 3.33541 15.0791 3.33334 14.9332C3.3267 14.7861 3.366 14.6406 3.4458 14.5168C3.5256 14.3931 3.64194 14.2972 3.77868 14.2426L27.664 4.59857C27.7864 4.54657 27.9209 4.52975 28.0523 4.55001C28.1838 4.57027 28.3069 4.6268 28.408 4.71324C28.5085 4.79456 28.5844 4.90221 28.6273 5.02417C28.6701 5.14613 28.6782 5.27761 28.6507 5.40391L24.3027 26.7572V26.7559Z" fill="black"/>
</svg>
