<svg xmlns="http://www.w3.org/2000/svg" xmlns:xlink="http://www.w3.org/1999/xlink"><defs>
<clipPath id="clip0_1369_3856">
<rect width="23" height="24" fill="white" transform="matrix(0 -1 1 0 0.5 23.5)"/>
</clipPath>

<clipPath id="clip0_1369_4054">
<rect width="18" height="20" fill="white"/>
</clipPath>

<clipPath id="clip0_1369_2552">
<rect width="22" height="24" fill="white" transform="matrix(0 -1 1 0 0.5 22)"/>
</clipPath>

<clipPath id="clip0_1369_1453">
<rect width="31.7333" height="31.7333" fill="white" transform="translate(0.133301 0.133301)"/>
</clipPath>

<clipPath id="clip0_1369_3709">
<rect width="23" height="22" fill="white"/>
</clipPath>
</defs><symbol id="arrow-down-filled" viewBox="0 0 10 5"><g fill="none">
<path d="M5 5L0.669872 0.5L9.33013 0.5L5 5Z" fill="currentColor"/>
</g></symbol><symbol id="arrow-down" viewBox="0 0 25 24"><g fill="none">
<g opacity="0.3" clip-path="url(#clip0_1369_3856)">
<path d="M1.777 7.82869C1.63804 7.94171 1.52779 8.07596 1.45257 8.22377C1.37734 8.37158 1.33862 8.53004 1.33862 8.69007C1.33862 8.8501 1.37734 9.00856 1.45257 9.15637C1.52779 9.30418 1.63804 9.43844 1.777 9.55145L11.6969 17.6397C11.8073 17.7299 11.9385 17.8015 12.0829 17.8503C12.2273 17.8992 12.3821 17.9243 12.5385 17.9243C12.6948 17.9243 12.8496 17.8992 12.994 17.8503C13.1384 17.8015 13.2696 17.7299 13.38 17.6397L23.2999 9.55145C23.8849 9.07453 23.8849 8.30561 23.2999 7.82869C22.715 7.35177 22.1008 7.74685 21.5159 8.22377L16.3159 12.4838L12.4999 15.4849L2.89995 7.81826C2.89995 7.81826 2.34999 7.35177 1.777 7.82869Z" fill="currentColor"/>
</g>

</g></symbol><symbol id="arrow-filled" viewBox="0 0 11 14"><g fill="none">
<path d="M11 7L0.5 13.0622V0.937822L11 7Z" fill="currentColor"/>
</g></symbol><symbol id="arrow-next" viewBox="0 0 35 31"><g fill="none">
<g opacity="0.3">
<path d="M9.96741 29.1127C10.1394 29.2922 10.3437 29.4346 10.5686 29.5318C10.7936 29.6289 11.0347 29.679 11.2782 29.679C11.5217 29.679 11.7629 29.6289 11.9878 29.5318C12.2127 29.4346 12.417 29.2922 12.589 29.1127L24.8972 16.2995C25.0345 16.1569 25.1434 15.9874 25.2177 15.8009C25.2921 15.6144 25.3303 15.4144 25.3303 15.2125C25.3303 15.0106 25.2921 14.8106 25.2177 14.6241C25.1434 14.4375 25.0345 14.2681 24.8972 14.1255L12.589 1.31227C11.8633 0.556738 10.6932 0.556738 9.96741 1.31227C9.24166 2.0678 10.4106 3.37782 11.1364 4.13335L21.7424 15.2125L10.5686 26.8667C9.85768 27.6068 9.24166 28.3726 9.96741 29.1127Z" fill="black"/>
</g>
</g></symbol><symbol id="icon-bicycle" viewBox="0 0 24 24"><g fill="none">
<path d="M18.1875 21C17.3346 21 16.5008 20.7471 15.7916 20.2732C15.0824 19.7994 14.5297 19.1258 14.2033 18.3378C13.8769 17.5498 13.7915 16.6827 13.9579 15.8462C14.1243 15.0096 14.535 14.2412 15.1381 13.6381C15.7412 13.035 16.5096 12.6243 17.3462 12.4579C18.1827 12.2915 19.0498 12.3769 19.8378 12.7033C20.6258 13.0297 21.2994 13.5824 21.7732 14.2916C22.2471 15.0008 22.5 15.8346 22.5 16.6875C22.4988 17.8309 22.044 18.927 21.2355 19.7355C20.427 20.544 19.3309 20.9988 18.1875 21ZM18.1875 13.875C17.6312 13.875 17.0875 14.04 16.625 14.349C16.1624 14.658 15.802 15.0973 15.5891 15.6112C15.3762 16.1251 15.3205 16.6906 15.429 17.2362C15.5376 17.7818 15.8054 18.2829 16.1988 18.6762C16.5921 19.0696 17.0932 19.3374 17.6388 19.446C18.1844 19.5545 18.7499 19.4988 19.2638 19.2859C19.7777 19.073 20.217 18.7126 20.526 18.25C20.8351 17.7875 21 17.2438 21 16.6875C20.9991 15.9418 20.7025 15.227 20.1753 14.6997C19.648 14.1725 18.9332 13.8759 18.1875 13.875Z" fill="currentColor"/>
<path d="M5.8125 21C4.95957 21 4.12579 20.7471 3.41661 20.2732C2.70742 19.7994 2.15467 19.1258 1.82827 18.3378C1.50187 17.5498 1.41647 16.6827 1.58287 15.8462C1.74926 15.0096 2.15999 14.2412 2.7631 13.6381C3.36622 13.035 4.13463 12.6243 4.97117 12.4579C5.80772 12.2915 6.67482 12.3769 7.46282 12.7033C8.25083 13.0297 8.92435 13.5824 9.39822 14.2916C9.87208 15.0008 10.125 15.8346 10.125 16.6875C10.1238 17.8309 9.66901 18.927 8.86053 19.7355C8.05205 20.544 6.95587 20.9988 5.8125 21ZM5.8125 13.875C5.25624 13.875 4.71247 14.04 4.24996 14.349C3.78745 14.658 3.42696 15.0973 3.21409 15.6112C3.00122 16.1251 2.94552 16.6906 3.05404 17.2362C3.16256 17.7818 3.43043 18.2829 3.82376 18.6762C4.2171 19.0696 4.71824 19.3374 5.26381 19.446C5.80938 19.5545 6.37488 19.4988 6.8888 19.2859C7.40272 19.073 7.84197 18.7126 8.15101 18.25C8.46005 17.7875 8.625 17.2438 8.625 16.6875C8.62413 15.9418 8.32754 15.227 7.80028 14.6997C7.27302 14.1725 6.55816 13.8759 5.8125 13.875Z" fill="currentColor"/>
<path d="M15 6.00005C15.1976 6.00073 15.3933 5.96225 15.5759 5.88681C15.7585 5.81138 15.9244 5.7005 16.0638 5.56058C16.2033 5.42065 16.3137 5.25447 16.3886 5.07163C16.4634 4.88879 16.5013 4.69293 16.5 4.49536C16.5022 4.29878 16.4651 4.10374 16.3911 3.92164C16.317 3.73954 16.2074 3.57403 16.0686 3.4348C15.9298 3.29558 15.7646 3.18542 15.5827 3.11077C15.4009 3.03612 15.2059 2.99848 15.0094 3.00005C14.8124 2.99943 14.6172 3.03762 14.435 3.11243C14.2528 3.18725 14.0871 3.29722 13.9473 3.43607C13.8076 3.57493 13.6966 3.73994 13.6207 3.92169C13.5447 4.10344 13.5053 4.29838 13.5047 4.49536C13.5041 4.69234 13.5422 4.88752 13.6171 5.06974C13.6919 5.25197 13.8018 5.41767 13.9407 5.55739C14.0796 5.69712 14.2446 5.80812 14.4263 5.88407C14.6081 5.96002 14.803 5.99943 15 6.00005Z" fill="currentColor"/>
<path d="M17.2289 9.00028H15.1777C15.144 9.00028 15.111 8.99124 15.082 8.97408C15.0531 8.95693 15.0293 8.9323 15.0131 8.90278L13.5253 6.17606C13.4205 5.97342 13.2694 5.79832 13.0843 5.66492C12.8993 5.53152 12.6854 5.44357 12.46 5.4082C12.2346 5.37282 12.004 5.39102 11.787 5.4613C11.5699 5.53159 11.3725 5.652 11.2106 5.81278L7.93594 9.11278C7.66083 9.39358 7.50467 9.7697 7.5 10.1628C7.5 10.9784 8.09063 11.269 8.36719 11.4331C9.70313 12.2028 10.6439 12.7657 11.16 13.0784C11.1874 13.0951 11.2101 13.1186 11.2259 13.1466C11.2416 13.1746 11.2499 13.2061 11.25 13.2382V16.4782C11.25 16.8818 11.5603 17.2282 11.9639 17.2484C12.0652 17.2533 12.1665 17.2376 12.2616 17.2022C12.3567 17.1668 12.4436 17.1125 12.517 17.0426C12.5905 16.9726 12.6491 16.8885 12.6891 16.7953C12.7291 16.7021 12.7499 16.6017 12.75 16.5003V12.469C12.7501 12.35 12.7218 12.2326 12.6675 12.1266C12.6132 12.0207 12.5345 11.9292 12.4378 11.8597L10.7034 10.6123C10.6817 10.5967 10.6635 10.5767 10.6501 10.5535C10.6367 10.5303 10.6285 10.5045 10.6259 10.4779C10.6233 10.4512 10.6265 10.4243 10.6352 10.399C10.6439 10.3737 10.6579 10.3505 10.6762 10.3311L12.645 8.23153C12.6652 8.20993 12.6902 8.1934 12.718 8.18331C12.7458 8.17322 12.7756 8.16984 12.8049 8.17345C12.8342 8.17706 12.8623 8.18756 12.8868 8.20409C12.9113 8.22062 12.9316 8.24271 12.9459 8.26856L13.9688 10.1145C14.0338 10.2315 14.1289 10.329 14.2443 10.3968C14.3597 10.4647 14.4911 10.5004 14.625 10.5003H17.25C17.3516 10.5004 17.4522 10.4799 17.5456 10.4399C17.639 10.4 17.7234 10.3415 17.7935 10.268C17.8636 10.1945 17.9181 10.1075 17.9536 10.0123C17.9891 9.91709 18.0049 9.81567 18 9.71418C17.9803 9.31059 17.6325 9.00028 17.2289 9.00028Z" fill="currentColor"/>
</g></symbol><symbol id="icon-bus" viewBox="0 0 18 20"><g fill="none">
<g clip-path="url(#clip0_1369_4054)">
<path d="M4.50098 13.5714C4.50098 13.1771 4.35456 12.8404 4.06171 12.5614C3.76886 12.2824 3.41549 12.1429 3.0016 12.1429C2.58771 12.1429 2.23435 12.2824 1.9415 12.5614C1.64865 12.8404 1.50223 13.1771 1.50223 13.5714C1.50223 13.9658 1.64865 14.3025 1.9415 14.5815C2.23435 14.8605 2.58771 15 3.0016 15C3.41549 15 3.76886 14.8605 4.06171 14.5815C4.35456 14.3025 4.50098 13.9658 4.50098 13.5714ZM16.496 13.5714C16.496 13.1771 16.3496 12.8404 16.0567 12.5614C15.7639 12.2824 15.4105 12.1429 14.9966 12.1429C14.5827 12.1429 14.2293 12.2824 13.9365 12.5614C13.6437 12.8404 13.4972 13.1771 13.4972 13.5714C13.4972 13.9658 13.6437 14.3025 13.9365 14.5815C14.2293 14.8605 14.5827 15 14.9966 15C15.4105 15 15.7639 14.8605 16.0567 14.5815C16.3496 14.3025 16.496 13.9658 16.496 13.5714ZM15.9571 9.15179L15.1137 4.86607C15.0747 4.69494 14.9868 4.55543 14.8502 4.44754C14.7135 4.33966 14.5554 4.28571 14.3758 4.28571H3.62244C3.44283 4.28571 3.28469 4.33966 3.14803 4.44754C3.01137 4.55543 2.92351 4.69494 2.88447 4.86607L2.04107 9.15179C2.00202 9.375 2.05669 9.57217 2.20506 9.7433C2.35344 9.91443 2.54476 10 2.77904 10H15.2192C15.4534 10 15.6448 9.91443 15.7931 9.7433C15.9415 9.57217 15.9962 9.375 15.9571 9.15179ZM13.3098 2.32143C13.3098 2.17262 13.2551 2.04613 13.1458 1.94196C13.0365 1.8378 12.9037 1.78571 12.7475 1.78571H5.25067C5.09448 1.78571 4.96172 1.8378 4.8524 1.94196C4.74307 2.04613 4.6884 2.17262 4.6884 2.32143C4.6884 2.47024 4.74307 2.59673 4.8524 2.70089C4.96172 2.80506 5.09448 2.85714 5.25067 2.85714H12.7475C12.9037 2.85714 13.0365 2.80506 13.1458 2.70089C13.2551 2.59673 13.3098 2.47024 13.3098 2.32143ZM17.9954 10.4129V17.1429H16.496V18.5714C16.496 18.9658 16.3496 19.3025 16.0567 19.5815C15.7639 19.8605 15.4105 20 14.9966 20C14.5827 20 14.2293 19.8605 13.9365 19.5815C13.6437 19.3025 13.4972 18.9658 13.4972 18.5714V17.1429H4.50098V18.5714C4.50098 18.9658 4.35456 19.3025 4.06171 19.5815C3.76886 19.8605 3.41549 20 3.0016 20C2.58771 20 2.23435 19.8605 1.9415 19.5815C1.64865 19.3025 1.50223 18.9658 1.50223 18.5714V17.1429H0.00285339V10.4129C0.00285339 9.57961 0.100469 8.75 0.2957 7.92411L1.50223 2.85714C1.57251 2.27679 1.95321 1.76711 2.64433 1.32812C3.33545 0.889137 4.23351 0.558036 5.33852 0.334821C6.44353 0.111607 7.66372 0 8.99911 0C10.3345 0 11.5547 0.111607 12.6597 0.334821C13.7647 0.558036 14.6628 0.889137 15.3539 1.32812C16.045 1.76711 16.4257 2.27679 16.496 2.85714L17.7259 7.92411C17.9056 8.68304 17.9954 9.51265 17.9954 10.4129Z" fill="currentColor"/>
</g>

</g></symbol><symbol id="icon-businessman" viewBox="0 0 28 28"><g fill="none">
<path d="M23.3758 23.2418V19.8933C23.3758 18.9558 23.2418 18.0182 22.7061 17.0806C22.1703 16.143 21.5006 15.3394 20.5631 14.8036C19.6255 14.1339 17.6164 14 16.6788 14L14.5358 16.277L15.3394 18.0182V22.0364L14 23.5097L12.6606 22.0364V18.0182L13.5982 16.277L11.3212 14C10.2497 14 8.24063 14.1339 7.30306 14.8036C6.36548 15.3394 5.82972 16.143 5.29396 17.0806C4.75821 18.0182 4.62427 18.8218 4.62427 19.8933V23.2418C4.62427 23.2418 8.10669 24.7151 14 24.7151C19.8934 24.7151 23.3758 23.2418 23.3758 23.2418Z" fill="#192144"/>
<path d="M14 3.41895C11.4551 3.41895 9.98178 5.82985 10.3836 8.50864C10.7854 11.1874 12.1248 13.0626 14 13.0626C15.8751 13.0626 17.2145 11.1874 17.6163 8.50864C18.0181 5.69592 16.5448 3.41895 14 3.41895Z" fill="#192144"/>
</g></symbol><symbol id="icon-checkmark" viewBox="0 0 11 12"><g fill="none">
<path d="M3.38679 11.1809L0 7.5V7V6C0 5.95907 0 6.04093 0 6C0 5.78516 6.95735e-05 5.5 6.95735e-05 5.5V4.5L3.37736 7.75615C3.49314 7.87756 3.68161 7.87614 3.79738 7.75474L11.0001 0V2.07271V3C11.0001 3.5 11.0001 3.5 11.0001 3.5L4.80839 10.1208L4.80974 10.1222L3.80681 11.1795C3.69103 11.3009 3.50256 11.3009 3.38679 11.1809Z" fill="currentColor"/>
</g></symbol><symbol id="icon-close-bold" viewBox="0 0 25 22"><g fill="none">
<g clip-path="url(#clip0_1369_2552)">
<path d="M21.5 2.75L3.5 19.25" stroke="currentColor" stroke-width="2.8" stroke-linecap="round" stroke-linejoin="round"/>
<path d="M3.5 2.75L21.5 19.25" stroke="currentColor" stroke-width="2.8" stroke-linecap="round" stroke-linejoin="round"/>
</g>

</g></symbol><symbol id="icon-close" viewBox="0 0 24 22"><g fill="none">
<g>
<path d="M21 2.75L3 19.25" stroke="currentColor" stroke-width="1.7" stroke-linecap="round" stroke-linejoin="round"/>
<path d="M3 2.75L21 19.25" stroke="currentColor" stroke-width="1.7" stroke-linecap="round" stroke-linejoin="round"/>
</g>
</g></symbol><symbol id="icon-contacts-mail" viewBox="0 0 37 26"><g fill="none">
<path fill-rule="evenodd" clip-rule="evenodd" d="M32.2786 20.9327L23.6178 13L32.2786 5.06731L31.0976 3.80529L18.5 15.3438L5.9024 3.80529L4.72137 5.06731L13.3822 13L4.72137 20.9327L5.9024 22.1947L14.6617 14.1719L18.5 17.6875L22.3383 14.1719L31.0976 22.1947L32.2786 20.9327ZM3.15193 0.5C1.5339 0.5 0.222229 1.89768 0.222229 3.61572V22.3843C0.222229 24.105 1.52326 25.5 3.15193 25.5H33.8481C35.4661 25.5 36.7778 24.1023 36.7778 22.3843V3.61572C36.7778 1.89496 35.4768 0.5 33.8481 0.5H3.15193Z" fill="currentColor"/>
</g></symbol><symbol id="icon-contacts-phone" viewBox="0 0 36 34"><g fill="none">
<path fill-rule="evenodd" clip-rule="evenodd" d="M18 2.17236C12.4071 2.17236 6.80078 3.1177 4.76656 5.00191C3.07881 6.56509 2.5162 9.32664 2.32655 11.0751C2.32655 11.0751 2.30042 11.2479 2.30042 11.3222C2.30042 12.0079 2.88902 12.5578 3.60866 12.5578C3.69369 12.5578 6.84016 12.3168 8.73714 12.1686C8.78279 12.1623 8.8288 12.1562 8.87445 12.1439C9.58099 12.1255 10.1502 11.5817 10.1502 10.9083L10.1566 8.47406C10.1566 7.72035 10.8044 7.11481 11.6025 7.11481H24.3974C25.1957 7.11481 25.8436 7.72028 25.8436 8.47406L25.85 10.9083C25.85 11.5817 26.4192 12.1255 27.1257 12.1439C27.171 12.1563 27.217 12.1623 27.2632 12.1686C29.1603 12.3167 32.3067 12.5578 32.3915 12.5578C33.1108 12.5578 33.6998 12.0079 33.6998 11.3222C33.6998 11.2479 33.6737 11.0751 33.6737 11.0751C33.4839 9.32664 32.922 6.56516 31.2341 5.00191C29.1993 3.1177 23.5929 2.17236 18 2.17236ZM18 18.2355C16.5543 18.2355 15.3834 19.3413 15.3834 20.7067C15.3834 22.0721 16.5543 23.1778 18 23.1778C19.4457 23.1778 20.6166 22.0721 20.6166 20.7067C20.6166 19.3413 19.4457 18.2355 18 18.2355ZM16.0376 12.6751V11.1306C16.0376 10.2781 15.3048 9.58613 14.4023 9.58613C13.4997 9.58613 12.7669 10.2782 12.7669 11.1306V12.6751L3.94202 21.5779C3.3339 22.1402 2.95439 22.9245 2.95439 23.7897V26.2671C2.95439 27.6325 4.1254 28.7383 5.57102 28.7383H6.22521V30.2829C6.22521 31.1354 6.95802 31.8273 7.86062 31.8273C8.76321 31.8273 9.49595 31.1354 9.49595 30.2829V28.7383H26.5041V30.2829C26.5041 31.1354 27.2366 31.8273 28.1396 31.8273C29.0422 31.8273 29.7748 31.1354 29.7748 30.2829V28.7383H30.4289C31.8746 28.7383 33.0455 27.6325 33.0455 26.2671V23.7897C33.0455 22.9245 32.6661 22.1401 32.0579 21.5779L23.2333 12.6751V11.1306C23.2333 10.2781 22.5005 9.58613 21.5979 9.58613C20.6953 9.58613 19.9626 10.2782 19.9626 11.1306V12.6751H16.0376ZM18 15.7643C20.8914 15.7643 23.2333 17.976 23.2333 20.7067C23.2333 23.4375 20.8915 25.6494 18 25.6494C15.1086 25.6494 12.7668 23.4375 12.7668 20.7067C12.7668 17.976 15.1086 15.7643 18 15.7643Z" fill="currentColor"/>
</g></symbol><symbol id="icon-dots-button" viewBox="0 0 34 6"><g fill="none">
<ellipse cx="3.93515" cy="3" rx="3.34054" ry="3" fill="currentColor"/>
<ellipse cx="17.2973" cy="3" rx="3.34054" ry="3" fill="currentColor"/>
<ellipse cx="30.6595" cy="3" rx="3.34054" ry="3" fill="currentColor"/>
</g></symbol><symbol id="icon-filters" viewBox="0 0 23 15"><g fill="none">
<rect x="11" width="12" height="3" fill="#192144"/>
<rect x="11" y="12" width="12" height="3" fill="#192144"/>
<rect y="6" width="12" height="3" fill="#192144"/>
<rect x="6" width="3" height="3" fill="#192144"/>
<rect x="6" y="12" width="3" height="3" fill="#192144"/>
<rect x="14" y="6" width="3" height="3" fill="#192144"/>
<rect width="4" height="3" fill="#192144"/>
<rect y="12" width="4" height="3" fill="#192144"/>
<rect x="19" y="6" width="4" height="3" fill="#192144"/>
</g></symbol><symbol id="icon-heart-filled" viewBox="0 0 20 20"><g fill="none">
<path d="M5 1.25C7.7625 1.25 10 3.44375 10 6.15C10 3.44375 12.2375 1.25 15 1.25C17.7625 1.25 20 3.44375 20 6.15C20 10.2288 15.9575 11.6675 10.49 18.16C10.4298 18.2313 10.3548 18.2886 10.2701 18.3279C10.1855 18.3672 10.0933 18.3876 10 18.3876C9.90668 18.3876 9.81449 18.3672 9.72986 18.3279C9.64523 18.2886 9.57019 18.2313 9.51 18.16C4.0425 11.6675 0 10.2288 0 6.15C0 3.44375 2.2375 1.25 5 1.25Z" fill="currentColor"/>
</g></symbol><symbol id="icon-heart" viewBox="0 0 20 20"><g fill="none">
<g>
<path fill-rule="evenodd" clip-rule="evenodd" d="M10 8.12436L11.1175 5.77557C11.395 5.19396 11.8762 4.35764 12.5575 3.68149C13.2275 3.01585 14.03 2.5629 15 2.5629C17.095 2.5629 18.75 4.30381 18.75 6.39658C18.75 7.9865 18.0575 9.10903 16.415 10.8211C15.9937 11.2596 15.5138 11.7335 14.9825 12.2561C13.5975 13.6215 11.875 15.3204 10 17.5917C8.125 15.3204 6.4025 13.6215 5.0175 12.2561C4.48625 11.7335 4.005 11.2583 3.585 10.8211C1.9425 9.10903 1.25 7.9865 1.25 6.39658C1.25 4.30381 2.905 2.5629 5 2.5629C5.97 2.5629 6.7725 3.01585 7.4425 3.68149C8.12375 4.35764 8.605 5.19396 8.8825 5.77557L10 8.12436ZM10.49 19.0109C10.4298 19.0858 10.3548 19.146 10.2701 19.1873C10.1855 19.2286 10.0933 19.25 10 19.25C9.90668 19.25 9.81449 19.2286 9.72986 19.1873C9.64523 19.146 9.57019 19.0858 9.51 19.0109C7.50875 16.5138 5.6975 14.7283 4.20625 13.2591C1.625 10.7134 0 9.11297 0 6.39658C0 3.55414 2.2375 1.25 5 1.25C7 1.25 8.39875 2.62855 9.255 3.88631C9.58 4.36552 9.8275 4.82635 10 5.18871C10.2162 4.73519 10.4653 4.29978 10.745 3.88631C11.6012 2.62723 13 1.25 15 1.25C17.7625 1.25 20 3.55414 20 6.39658C20 9.11297 18.375 10.7134 15.7938 13.2591C14.3025 14.7296 12.4913 16.5151 10.49 19.0096V19.0109Z" fill="currentColor"/>
</g>
</g></symbol><symbol id="icon-level" viewBox="0 0 100 100">
  <circle r="45" cx="50" cy="50" fill="none" stroke="currentColor" stroke-linecap="round"/>
</symbol><symbol id="icon-location-pin" viewBox="0 0 32 32"><g fill="none">
<g clip-path="url(#clip0_1369_1453)">
<path d="M16 0.133301C9.42919 0.133301 4.09998 5.46252 4.09998 12.0333C4.09998 19.6771 9.84742 23.019 11.1179 24.5436C14.1692 28.2051 14.3416 31.8666 16 31.8666C17.6583 31.8666 17.8307 28.2051 20.882 24.5436C22.1525 23.019 27.9 19.6771 27.9 12.0333C27.9 5.46252 22.5708 0.133301 16 0.133301ZM16 19.9666C11.6188 19.9666 8.06664 16.4145 8.06664 12.0333C8.06664 7.65212 11.6188 4.09997 16 4.09997C20.3812 4.09997 23.9333 7.65212 23.9333 12.0333C23.9333 16.4145 20.3812 19.9666 16 19.9666ZM16 8.06663C13.8104 8.06663 12.0333 9.8437 12.0333 12.0333C12.0333 14.2229 13.8104 16 16 16C18.1896 16 19.9666 14.2229 19.9666 12.0333C19.9666 9.8437 18.1896 8.06663 16 8.06663Z" fill="#CCE5FA"/>
<ellipse cx="16" cy="12.0332" rx="1.32222" ry="1.32222" fill="#161C35"/>
</g>

</g></symbol><symbol id="icon-mail" viewBox="0 0 16 14"><g fill="none">
<path d="M1.25913 2.60026L7.25913 6.36066C7.46073 6.48666 7.72153 6.54639 7.98393 6.54639C8.24633 6.54639 8.50713 6.48666 8.70873 6.36066L14.7087 2.60026C15.0999 2.35479 15.4695 1.39999 14.7519 1.39999H1.21673C0.499128 1.39999 0.868728 2.35479 1.25913 2.60026ZM14.8903 4.65639L8.70873 8.41493C8.43673 8.58106 8.24633 8.60066 7.98393 8.60066C7.72153 8.60066 7.53113 8.58106 7.25913 8.41493C6.98713 8.24879 1.55273 4.92519 1.10873 4.65546C0.796728 4.46506 0.799928 4.68813 0.799928 4.85986V11.6667C0.799928 12.0587 1.25273 12.6 1.59993 12.6H14.3999C14.7471 12.6 15.1999 12.0587 15.1999 11.6667V4.86079C15.1999 4.68906 15.2031 4.46599 14.8903 4.65639Z" fill="currentColor"/>
</g></symbol><symbol id="icon-map-pin" viewBox="0 0 56 56"><g fill="none">
<circle cx="28" cy="28" r="27" fill="white"/>
<circle cx="28" cy="27" r="12" fill="#182044"/>
</g></symbol><symbol id="icon-menu-tablet" viewBox="0 0 25 11"><g fill="none">
<rect width="25" height="3" rx="1.5" fill="white"/>
<rect y="8" width="25" height="3" rx="1.5" fill="white"/>
</g></symbol><symbol id="icon-minus" viewBox="0 0 20 2"><g fill="none">
<line y1="1" x2="20" y2="1" stroke="#999999" stroke-width="2"/>
</g></symbol><symbol id="icon-pagination-arrow" viewBox="0 0 11 18"><g fill="none">
<path d="M0.898682 9L10.6487 0.339745L10.6487 17.6603L0.898682 9Z" fill="currentColor"/>
</g></symbol><symbol id="icon-phone" viewBox="0 0 18 18"><g fill="none">
<path d="M8.97418 7.42388C8.97418 7.61288 9.12781 7.76138 9.31556 7.76138C9.70474 7.76138 10.0188 8.07526 10.0188 8.45663C10.0188 8.64225 10.1724 8.79413 10.3602 8.79413C10.5479 8.79413 10.7016 8.64225 10.7016 8.45663C10.7016 7.70064 10.0802 7.08638 9.31556 7.08638C9.12781 7.08638 8.97418 7.23826 8.97418 7.42388ZM14.5318 8.79413C14.723 8.79413 14.8732 8.64225 14.8732 8.45663C14.8732 5.42589 12.3811 2.96214 9.31556 2.96214C9.12781 2.96214 8.97418 3.114 8.97418 3.29964C8.97418 3.48526 9.12781 3.63714 9.31556 3.63714C12.0056 3.63714 14.1905 5.80051 14.1905 8.45663C14.1905 8.64225 14.3441 8.79413 14.5318 8.79413Z" fill="currentColor"/>
<path d="M12.1046 8.45663C12.1046 8.64225 12.2582 8.79413 12.446 8.79413C12.6338 8.79413 12.7874 8.64225 12.7874 8.45663C12.7874 6.56326 11.2307 5.02426 9.31554 5.02426C9.12779 5.02426 8.97416 5.17614 8.97416 5.36176C8.97416 5.55076 9.12779 5.69926 9.31554 5.69926C10.8552 5.69926 12.1046 6.93788 12.1046 8.45663ZM9.31554 0.900002C9.12779 0.900002 8.97416 1.05188 8.97416 1.2375C8.97416 1.42314 9.12779 1.575 9.31554 1.575C13.1561 1.575 16.2797 4.66314 16.2797 8.45663C16.2797 8.64225 16.4299 8.79413 16.6211 8.79413C16.8088 8.79413 16.9624 8.64225 16.9624 8.45663C16.9624 4.28852 13.5316 0.900002 9.31554 0.900002ZM12.6508 12.0139L12.2036 12.2535C11.4492 12.6619 10.8621 13.7813 9.93104 12.9375L7.5 10.5L5.39993 8.45663C4.34484 7.1235 5.52624 6.80625 5.9393 6.05701L6.18168 5.61827C6.45478 5.11875 6.55377 4.55851 6.47185 3.99825C6.39333 3.43801 6.1373 2.92838 5.72764 2.52338C5.22924 2.03064 4.56696 1.76064 3.86031 1.76064C3.15365 1.76064 2.48796 2.03064 1.98953 2.52338L1.81545 2.69888C0.893721 3.61014 0.787894 5.1795 1.51503 7.1235C2.20119 8.97975 3.58379 10.9913 5.39993 12.7868C8.16851 15.5239 11.2512 17.1 13.4633 17.1C14.3372 17.1 15.078 16.8536 15.6037 16.3339L15.7813 16.1584C16.2763 15.669 16.5528 15.0143 16.5562 14.3089C16.5528 13.6204 16.2694 12.9454 15.7813 12.4628C14.9585 11.6494 13.6715 11.4671 12.6508 12.0139Z" fill="currentColor"/>
</g></symbol><symbol id="icon-plane" viewBox="0 0 23 22"><g fill="none">
<g clip-path="url(#clip0_1369_3709)">
<path d="M18.5347 1.18042C17.7301 1.36085 16.9218 1.54212 16.6212 2.03885L14.2941 6.4124L1.79919 9.21454L1.29295 10.612L10.8544 11.4648L9.23212 15.251L5.60602 16.0642L4.69562 17.5523L7.31158 17.8202L7.60988 19.0372C7.74352 19.4686 8.21259 19.7566 8.61297 19.6668L9.82168 19.3958L11.2228 21.6493L12.1332 20.1613L11.2383 16.5103L13.8637 13.3537L18.8731 21.6469L19.8832 20.5657L16.8005 7.98882L19.6314 3.93156C19.9358 3.43399 19.7373 2.62393 19.5378 1.81006C19.439 1.40693 18.9351 1.09063 18.5347 1.18042Z" fill="currentColor"/>
</g>

</g></symbol><symbol id="icon-plus" viewBox="0 0 20 20"><g fill="none">
<line y1="10" x2="20" y2="10" stroke="currentColor" stroke-width="2"/>
<line x1="10" y1="20" x2="10" stroke="currentColor" stroke-width="2"/>
</g></symbol><symbol id="icon-run" viewBox="0 0 22 24"><g fill="none">
<path d="M15.4545 6C16.4587 6 17.2727 5.10457 17.2727 4C17.2727 2.89543 16.4587 2 15.4545 2C14.4504 2 13.6364 2.89543 13.6364 4C13.6364 5.10457 14.4504 6 15.4545 6Z" fill="currentColor"/>
<path d="M14.3428 10.969C14.5514 11.311 14.8508 11.5742 15.2001 11.7227C15.5495 11.8712 15.9319 11.8978 16.2955 11.799L19.31 10.97L18.8709 9.02997L15.8564 9.85897L14.6027 7.79197C14.3349 7.35053 13.9192 7.04354 13.4464 6.93797L9.95002 6.16797C9.55888 6.08162 9.15277 6.13933 8.79441 6.33217C8.43606 6.52502 8.14539 6.84229 7.9673 7.23497L6.46002 10.551L8.08639 11.446L9.59366 8.12897L11.3818 8.52297L6.7582 17H2.72729V19H6.7582C7.39275 19 7.99002 18.628 8.3173 18.029L10.0609 14.833L14.76 15.867L16.4109 21.316L18.1346 20.683L16.4846 15.235C16.3827 14.9005 16.2026 14.6014 15.9622 14.3679C15.7219 14.1345 15.4298 13.9748 15.1155 13.905L12.3527 13.298L13.9637 10.344L14.3428 10.969Z" fill="currentColor"/>
</g></symbol><symbol id="icon-user" viewBox="0 0 21 20"><g fill="none">
<path opacity="1" d="M5.6061 4.74038C5.6061 7.35196 7.85224 9.47722 10.6124 9.47722C13.3725 9.47722 15.6186 7.35196 15.6186 4.74038C15.6186 2.1288 13.3725 0.00354004 10.6124 0.00354004C7.85224 0.00354004 5.6061 2.1288 5.6061 4.74038ZM19.5124 20.0035H20.6249V18.9509C20.6249 14.8888 17.1305 11.5825 12.8374 11.5825H8.38735C4.0931 11.5825 0.599854 14.8888 0.599854 18.9509V20.0035H19.5124Z" fill="currentColor"/>
</g></symbol><symbol id="socials-telegram" viewBox="0 0 32 32"><g fill="none">
<path d="M29.26 3.68657C28.9725 3.44827 28.6259 3.29221 28.2569 3.23494C27.8879 3.17766 27.5102 3.2213 27.164 3.36124L3.27468 13.0052C2.88864 13.1639 2.55998 13.4362 2.33232 13.786C2.10467 14.1358 1.9888 14.5466 2.00008 14.9638C2.01136 15.381 2.14927 15.7849 2.3955 16.1219C2.64173 16.4589 2.98463 16.713 3.37868 16.8506L8.53334 18.6399L11.3267 27.8746C11.332 27.8932 11.3493 27.9052 11.3573 27.9226C11.3861 27.9963 11.4281 28.064 11.4813 28.1226C11.5622 28.2128 11.6665 28.2789 11.7827 28.3132C11.796 28.3186 11.8053 28.3306 11.8187 28.3332H11.8267L11.8307 28.3346C11.9338 28.3568 12.041 28.3513 12.1413 28.3186C12.152 28.3159 12.1627 28.3159 12.1747 28.3119C12.271 28.2781 12.3582 28.2224 12.4293 28.1492C12.4373 28.1399 12.4507 28.1386 12.4587 28.1306L16.476 23.6959L22.3387 28.2359C22.6947 28.5146 23.1333 28.6652 23.5853 28.6652C24.564 28.6652 25.408 27.9799 25.6093 27.0239L29.9587 5.66657C30.0324 5.30401 30.0064 4.92821 29.8834 4.57927C29.7603 4.23034 29.5449 3.92134 29.26 3.68524V3.68657ZM12.784 20.3932L11.8413 24.9759L9.87468 18.4719L19.628 13.3919L12.9653 20.0559C12.8731 20.1481 12.81 20.2654 12.784 20.3932ZM24.3027 26.7559C24.2776 26.8768 24.2219 26.9893 24.1409 27.0824C24.0599 27.1756 23.9563 27.2463 23.84 27.2879C23.7266 27.3316 23.6037 27.3449 23.4836 27.3267C23.3634 27.3085 23.25 27.2593 23.1547 27.1839L16.804 22.2652C16.6713 22.1628 16.5047 22.1141 16.3377 22.1289C16.1706 22.1437 16.0153 22.221 15.9027 22.3452L13.1067 25.4266L14.048 20.8572L23.6333 11.2706C23.7456 11.158 23.8139 11.0089 23.8259 10.8504C23.8379 10.6918 23.7929 10.5342 23.6989 10.4059C23.6049 10.2776 23.4682 10.1872 23.3134 10.1509C23.1586 10.1146 22.9959 10.1348 22.8547 10.2079L9.03734 17.4052L3.81468 15.5892C3.6762 15.5435 3.55543 15.4558 3.46916 15.3382C3.38289 15.2206 3.33541 15.0791 3.33334 14.9332C3.3267 14.7861 3.366 14.6406 3.4458 14.5168C3.5256 14.3931 3.64194 14.2972 3.77868 14.2426L27.664 4.59857C27.7864 4.54657 27.9209 4.52975 28.0523 4.55001C28.1838 4.57027 28.3069 4.6268 28.408 4.71324C28.5085 4.79456 28.5844 4.90221 28.6273 5.02417C28.6701 5.14613 28.6782 5.27761 28.6507 5.40391L24.3027 26.7572V26.7559Z" fill="currentColor"/>
</g></symbol><symbol id="socials-vkontakte" viewBox="0 0 32 32"><g fill="none">
<path d="M24.9461 23.7775C24.2083 23.761 23.4891 23.5431 22.8661 23.1475C22.2157 22.7079 21.6184 22.1945 21.0861 21.6175C20.6461 21.1775 19.9161 20.4375 19.6361 20.4375C19.3561 20.4375 19.1561 21.3575 19.1661 22.0075C19.1703 22.4562 19.0021 22.8894 18.6961 23.2175C18.3481 23.5018 17.9234 23.6758 17.4761 23.7175H15.5561C12.7965 23.6568 10.1541 22.59 8.12606 20.7175C4.44606 17.3475 1.28606 10.9075 1.15606 10.6275C1.03206 10.3936 0.980135 10.1282 1.00683 9.86481C1.03353 9.6014 1.13765 9.35181 1.30606 9.14753C1.6872 8.82967 2.16985 8.65933 2.66606 8.66753H6.74606H6.86606C7.20364 8.71678 7.52722 8.836 7.81606 9.01753C8.08788 9.1998 8.30552 9.45198 8.44606 9.74753C8.87724 10.6706 9.37175 11.5627 9.92606 12.4175C11.2361 14.4175 11.8161 14.8775 12.0261 14.9775C12.2597 14.0398 12.324 13.0679 12.2161 12.1075C12.2511 11.6701 12.179 11.2308 12.0061 10.8275C11.7865 10.6519 11.5169 10.5504 11.2361 10.5375L10.5061 9.84753C10.3661 9.18753 11.0961 8.61753 11.6061 8.39753C12.6238 8.07863 13.6916 7.94982 14.7561 8.01753H15.4661C16.1881 7.99873 16.9099 8.06587 17.6161 8.21753C19.3161 8.57753 19.2561 9.94753 19.1861 11.5275C19.1861 11.9875 19.1361 12.5275 19.1361 13.1475C19.1361 13.2975 19.1361 13.4575 19.1361 13.6275C19.0967 14.0629 19.1271 14.5017 19.2261 14.9275C20.0586 14.2311 20.7597 13.3912 21.2961 12.4475C21.875 11.5553 22.3832 10.6191 22.8161 9.64753C22.9479 9.34025 23.1739 9.08272 23.4614 8.91201C23.7489 8.7413 24.0832 8.6662 24.4161 8.69753H28.6961C28.8224 8.68547 28.9497 8.68547 29.0761 8.69753C30.0761 8.69753 30.6661 8.98753 30.9061 9.54753C31.1461 10.1075 31.0761 11.2075 28.5461 14.1575L27.5461 15.2875C27.0616 15.758 26.6443 16.293 26.3061 16.8775C26.6848 17.3081 27.1147 17.6909 27.5861 18.0175C28.7353 18.8835 29.7468 19.9186 30.5861 21.0875C30.7829 21.3148 30.9117 21.593 30.9576 21.8901C31.0036 22.1873 30.965 22.4914 30.8461 22.7675C30.6365 23.0734 30.3561 23.3241 30.0288 23.4982C29.7014 23.6723 29.3368 23.7647 28.9661 23.7675L25.1761 23.8175L24.9461 23.7775ZM19.6361 18.9375C20.5361 18.9375 21.3161 19.7275 22.1461 20.5575C22.5944 21.0471 23.0977 21.4833 23.6461 21.8575C24.0607 22.1333 24.5481 22.2795 25.0461 22.2775H25.1461L28.9461 22.2275C29.1335 22.2168 29.317 22.1692 29.4861 22.0875L29.3861 21.9275C28.6291 20.8959 27.7263 19.9797 26.7061 19.2075C25.5161 18.2075 24.9061 17.7375 24.8361 16.9675C24.7661 16.1975 25.3261 15.5275 26.4461 14.2575L27.4461 13.1475C28.2903 12.2864 28.9834 11.2891 29.4961 10.1975C29.2729 10.1843 29.0492 10.1843 28.8261 10.1975H24.4561C24.377 10.1799 24.2951 10.1799 24.2161 10.1975C23.7532 11.259 23.2012 12.2793 22.5661 13.2475C20.6761 16.0675 19.7861 16.4475 19.1561 16.4475C18.9607 16.4475 18.7684 16.3995 18.5961 16.3075C17.5961 15.7375 17.5961 14.4675 17.6561 13.5475C17.6561 13.3975 17.6561 13.2475 17.6561 13.1175C17.6561 12.4675 17.6561 11.9075 17.7061 11.4275C17.7861 9.74753 17.7061 9.73753 17.3261 9.64753C16.7138 9.52655 16.09 9.4729 15.4661 9.48753H14.7761C14.1411 9.47441 13.5061 9.50784 12.8761 9.58753C12.9715 9.65784 13.0558 9.74212 13.1261 9.83753C13.5385 10.4879 13.7442 11.2479 13.7161 12.0175C13.8461 13.6675 13.7761 15.8175 12.7161 16.3375C12.5284 16.4254 12.3233 16.4698 12.1161 16.4675C11.1861 16.4675 10.2661 15.5875 8.69606 13.2075C8.09358 12.2962 7.5556 11.3439 7.08606 10.3575L7.00606 10.2575C6.90508 10.2061 6.79736 10.169 6.68606 10.1475H2.68606H2.61606C3.20606 11.3675 6.00606 16.7675 9.13606 19.5975C10.8936 21.2122 13.1708 22.1451 15.5561 22.2275H17.4061C17.5004 22.2074 17.5914 22.1737 17.6761 22.1275C17.6761 22.1275 17.6761 22.1275 17.6761 22.0375C17.6761 21.7675 17.6761 19.4375 19.2561 19.0375C19.3784 18.9894 19.5059 18.9558 19.6361 18.9375Z" fill="currentColor"/>
</g></symbol><symbol id="socials-youtube" viewBox="0 0 32 32"><g fill="none">
<path d="M20.275 15.5873L14.275 11.5873C14.1998 11.5372 14.1124 11.5085 14.0222 11.5041C13.932 11.4997 13.8422 11.5198 13.7625 11.5623C13.6826 11.6039 13.6158 11.6668 13.5694 11.744C13.5231 11.8212 13.4991 11.9098 13.5 11.9998V19.9998C13.4991 20.0899 13.5231 20.1784 13.5694 20.2557C13.6158 20.3329 13.6826 20.3958 13.7625 20.4373C13.8361 20.4754 13.9172 20.4967 14 20.4998C14.0988 20.5016 14.1954 20.4709 14.275 20.4123L20.275 16.4123C20.3447 16.3684 20.4022 16.3075 20.442 16.2354C20.4818 16.1633 20.5027 16.0822 20.5027 15.9998C20.5027 15.9174 20.4818 15.8364 20.442 15.7642C20.4022 15.6921 20.3447 15.6312 20.275 15.5873ZM14.5 19.0623V12.9373L19.1 15.9998L14.5 19.0623ZM28.8125 8.84983C28.7092 8.4687 28.5189 8.11677 28.2564 7.82177C27.9939 7.52676 27.6665 7.29674 27.3 7.14983C23.075 5.52483 16.2875 5.54983 16 5.54983C15.7125 5.54983 8.925 5.52483 4.7 7.14983C4.33348 7.29674 4.00609 7.52676 3.74362 7.82177C3.48115 8.11677 3.29078 8.4687 3.1875 8.84983C2.875 10.0623 2.5 12.2873 2.5 15.9998C2.5 19.7123 2.875 21.9373 3.1875 23.1498C3.29078 23.5309 3.48115 23.8829 3.74362 24.1779C4.00609 24.4729 4.33348 24.7029 4.7 24.8498C8.925 26.4748 15.7125 26.4498 16 26.4498H16.0875C16.95 26.4498 23.2875 26.3998 27.3 24.8498C27.6665 24.7029 27.9939 24.4729 28.2564 24.1779C28.5189 23.8829 28.7092 23.5309 28.8125 23.1498C29.125 21.9373 29.5 19.7123 29.5 15.9998C29.5 12.2873 29.125 10.0623 28.8125 8.84983ZM27.8375 22.8998C27.7774 23.1274 27.6647 23.3376 27.5083 23.5135C27.352 23.6894 27.1564 23.826 26.9375 23.9123C22.8875 25.4748 16.075 25.4498 16 25.4498C15.925 25.4498 9.1125 25.4748 5.0625 23.9123C4.84358 23.826 4.64804 23.6894 4.49169 23.5135C4.33534 23.3376 4.22257 23.1274 4.1625 22.8998C3.8625 21.7373 3.5 19.5998 3.5 15.9998C3.5 12.3998 3.8625 10.2623 4.1625 9.09983C4.22257 8.87229 4.33534 8.66208 4.49169 8.48619C4.64804 8.3103 4.84358 8.17366 5.0625 8.08733C9.1125 6.52483 15.925 6.54983 16 6.54983C16.075 6.54983 22.8875 6.52483 26.9375 8.08733C27.1564 8.17366 27.352 8.3103 27.5083 8.48619C27.6647 8.66208 27.7774 8.87229 27.8375 9.09983C28.1375 10.2623 28.5 12.3998 28.5 15.9998C28.5 19.5998 28.1375 21.7373 27.8375 22.8998Z" fill="currentColor"/>
</g></symbol><symbol id="tooltip-pointer" viewBox="0 0 14 8"><g fill="none">
<path d="M7 0L13.9282 7.5H0.0717969L7 0Z" fill="#101D41"/>
</g></symbol></svg>